<?xml version="1.0" standalone="no"?>
<!DOCTYPE svg PUBLIC "-//W3C//DTD SVG 20010904//EN"
 "http://www.w3.org/TR/2001/REC-SVG-20010904/DTD/svg10.dtd">
<svg version="1.0" xmlns="http://www.w3.org/2000/svg"
 width="512.000000pt" height="512.000000pt" viewBox="0 0 512.000000 512.000000"
 preserveAspectRatio="xMidYMid meet">

<g transform="translate(0.000000,512.000000) scale(0.100000,-0.100000)"
fill="#000000" stroke="none">
<path d="M2428 4480 c-407 -51 -759 -320 -909 -695 -64 -160 -73 -212 -73
-420 -1 -176 1 -197 26 -286 63 -226 192 -430 361 -571 48 -40 55 -49 40 -55
-385 -136 -689 -466 -788 -856 -42 -165 -57 -407 -34 -533 23 -125 110 -238
221 -289 84 -38 469 -96 833 -126 192 -16 715 -16 910 0 389 31 750 88 842
132 83 40 162 125 194 210 22 60 24 76 23 249 -2 261 -37 421 -137 615 -126
243 -369 468 -617 570 l-88 37 56 47 c167 139 297 345 359 567 26 92 28 112
27 289 0 211 -10 264 -78 432 -114 278 -354 510 -643 619 -149 56 -372 84
-525 64z m283 -296 c215 -40 416 -171 539 -349 159 -232 189 -553 75 -811 -70
-157 -221 -319 -372 -397 -151 -77 -213 -92 -393 -92 -135 0 -165 3 -230 23
-151 48 -269 121 -376 235 -209 219 -281 527 -193 814 125 406 536 655 950
577z m362 -1977 c174 -47 329 -138 448 -265 179 -189 256 -382 266 -669 6
-164 0 -200 -42 -227 -12 -8 -91 -26 -176 -40 -669 -112 -1383 -111 -2049 5
-193 33 -195 36 -187 259 10 286 85 480 258 664 156 167 353 266 594 300 17 2
201 3 410 2 376 -2 381 -3 478 -29z"/>
<path d="M995 4016 c-226 -112 -398 -316 -471 -561 -36 -121 -44 -313 -20
-436 34 -164 115 -324 228 -445 l59 -63 -38 -20 c-73 -37 -198 -137 -278 -223
-141 -151 -237 -334 -276 -522 -27 -133 -27 -365 1 -440 25 -64 85 -137 145
-172 47 -27 208 -64 282 -64 136 0 191 154 89 249 -19 18 -51 29 -123 42 -135
26 -137 29 -130 176 7 135 26 212 77 318 113 235 343 423 570 465 36 7 79 21
96 31 60 36 81 123 45 189 -14 27 -39 46 -104 80 -112 59 -179 112 -234 185
-95 125 -135 242 -135 390 0 250 131 459 358 570 105 51 131 88 124 175 -5 64
-71 120 -142 120 -19 0 -71 -19 -123 -44z"/>
<path d="M3933 4044 c-76 -38 -100 -150 -46 -215 15 -17 54 -44 87 -59 228
-103 368 -323 367 -575 0 -108 -12 -165 -56 -260 -65 -142 -166 -244 -310
-314 -90 -44 -115 -72 -123 -136 -5 -50 18 -106 54 -129 13 -9 61 -25 108 -36
145 -34 252 -91 365 -196 85 -78 154 -171 201 -269 51 -106 70 -183 77 -318 7
-144 3 -151 -117 -172 -134 -24 -178 -57 -188 -140 -9 -87 52 -155 141 -155
74 0 235 37 282 64 60 35 120 108 145 172 17 46 20 78 20 202 0 174 -20 286
-74 417 -90 222 -282 443 -484 557 l-53 30 55 58 c112 117 198 285 232 450 22
112 15 313 -16 420 -71 251 -247 464 -475 576 -98 48 -140 54 -192 28z"/>
</g>
</svg>
